<svg xmlns="http://www.w3.org/2000/svg" xmlns:xlink="http://www.w3.org/1999/xlink" viewBox="0 0 30 30"><path d="M 27.168 10.897 C 24.911 4.168 17.626 0.543 10.897 2.801 C 4.168 5.058 0.543 12.343 2.801 19.072 C 5.058 25.801 12.343 29.426 19.072 27.168 C 25.801 24.91 29.426 17.626 27.168 10.897 Z M 10.257 0.893 C 18.04 -1.718 26.465 2.474 29.076 10.257 C 31.687 18.039 27.495 26.465 19.712 29.076 C 11.93 31.687 3.504 27.494 0.893 19.712 C -1.718 11.93 2.474 3.504 10.257 0.893 Z M 21.811 12.694 C 21.635 12.167 21.918 11.597 22.445 11.42 C 22.972 11.243 23.542 11.527 23.719 12.054 C 25.338 16.878 22.739 22.1 17.915 23.719 C 13.091 25.337 7.869 22.739 6.25 17.915 C 6.074 17.388 6.357 16.818 6.884 16.641 C 7.411 16.464 7.981 16.748 8.158 17.275 C 9.423 21.045 13.505 23.076 17.275 21.811 C 21.045 20.546 23.076 16.464 21.811 12.694 Z M 14.908 10.835 C 15.687 13.159 16.984 14.819 17.804 14.544 C 18.624 14.269 18.657 12.162 17.878 9.839 C 17.098 7.515 15.801 5.855 14.981 6.13 C 14.161 6.405 14.128 8.512 14.908 10.835 Z M 12.812 16.219 C 11.992 16.494 10.696 14.834 9.916 12.51 C 9.136 10.186 9.169 8.08 9.989 7.805 C 10.809 7.53 12.106 9.19 12.886 11.514 C 13.665 13.837 13.632 15.944 12.812 16.219 Z" fill="rgb(253,246,238)"></path></svg>